<?xml version="1.0" encoding="utf-8"?>
<!-- Generator: Adobe Illustrator 21.1.0, SVG Export Plug-In . SVG Version: 6.00 Build 0)  -->
<svg version="1.1" id="Capa_1" xmlns="http://www.w3.org/2000/svg" xmlns:xlink="http://www.w3.org/1999/xlink" x="0px" y="0px"
	 viewBox="0 0 59 59" style="enable-background:new 0 0 59 59;" xml:space="preserve">
<style type="text/css">
	.st0{fill:#00B67A;}
	.st1{fill:#28685C;}
	.st2{fill:#FDD7AD;}
	.st3{fill:#FFFFFF;}
</style>
<g>
	<path class="st0" d="M30.2,5l-29,29.2c-1,1-1,2.6,0,3.6l20.5,20.5c1,1,2.6,1,3.6,0l28.2-29V5H30.2z M43.5,19c-2.2,0-4-1.8-4-4
		s1.8-4,4-4s4,1.8,4,4S45.7,19,43.5,19z"/>
	<path class="st1" d="M43.5,7c-4.4,0-8,3.6-8,8s3.6,8,8,8s8-3.6,8-8S47.9,7,43.5,7z M43.5,19c-2.2,0-4-1.8-4-4s1.8-4,4-4s4,1.8,4,4
		S45.7,19,43.5,19z"/>
	<path class="st2" d="M43.5,16c-0.3,0-0.5-0.1-0.7-0.3c-0.4-0.4-0.4-1,0-1.4l14-14c0.4-0.4,1-0.4,1.4,0s0.4,1,0,1.4l-14,14
		C44,15.9,43.8,16,43.5,16z"/>
	<path class="st3" d="M22.5,44.4c-2,0-3.9-0.8-5.3-2.2c-2.9-2.9-2.9-7.6,0-10.5c0.4-0.4,1-0.4,1.4,0s0.4,1,0,1.4
		c-2.1,2.1-2.1,5.6,0,7.7c1.1,1.1,2.7,1.7,4.3,1.6c0.8-0.1,1.5-0.5,2.1-1.1c0.6-0.7,0.8-1.6,0.7-2.4l-1.3-10.6
		c-0.2-1.4,0.2-2.9,1.1-4c0.9-1.1,2.1-1.7,3.5-1.8c2.2-0.2,4.3,0.6,5.9,2.2c2.9,2.9,2.9,7.6,0,10.5c-0.4,0.4-1,0.4-1.4,0
		s-0.4-1,0-1.4c2.1-2.1,2.1-5.6,0-7.7c-1.1-1.1-2.7-1.7-4.3-1.6c-0.8,0.1-1.5,0.5-2.1,1.1c-0.6,0.7-0.8,1.6-0.7,2.4l1.3,10.6
		c0.2,1.4-0.2,2.9-1.1,4c-0.9,1.1-2.1,1.7-3.5,1.8C23,44.4,22.8,44.4,22.5,44.4z"/>
	<path class="st3" d="M16.5,44c-0.3,0-0.5-0.1-0.7-0.3c-0.4-0.4-0.4-1,0-1.4l18.8-18.8c0.4-0.4,1-0.4,1.4,0s0.4,1,0,1.4L17.2,43.7
		C17,43.9,16.8,44,16.5,44z"/>
</g>
</svg>
