<?xml version="1.0" encoding="utf-8"?>
<!-- Generator: Adobe Illustrator 21.1.0, SVG Export Plug-In . SVG Version: 6.00 Build 0)  -->
<svg version="1.1" id="Capa_1" xmlns="http://www.w3.org/2000/svg" xmlns:xlink="http://www.w3.org/1999/xlink" x="0px" y="0px"
	 viewBox="0 0 512 512" style="enable-background:new 0 0 512 512;" xml:space="preserve">
<style type="text/css">
	.st0{fill:#00B67A;}
</style>
<g>
	<g>
		<path class="st0" d="M157.5,115c-34,22.4-59.9,56.1-72.4,95.7c-0.1,0.3-0.2,0.7-0.3,1c-1.6,5.1-2.9,10.2-4,15.5
			c-0.2,0.8-0.3,1.5-0.5,2.3c-0.8,3.9-1.3,8-1.8,12l39.8-15.8c4.3-1.7,6.5-6.5,5.1-10.9c-3.1-9.3-0.7-19.5,6.2-26.4l24.6-24.6
			c5.2-5.2,8-12,8-19.4v-11.1C162.1,127,160.5,120.7,157.5,115z"/>
	</g>
</g>
<g>
	<g>
		<path class="st0" d="M430.2,285.4c-5.9,4.4-13.4,6.1-20.6,4.7c-7.2-1.4-13.5-5.8-17.3-12.1l-4.6-7.7l-12.2,55
			c-0.2,27.5-7.1,47.1-20.5,58.2c-9.7,8-20.2,9.4-26.6,9.4c-2.2,0-3.9-0.2-4.8-0.3c-5.3-0.2-10.1-2.4-13.9-6.5
			c-10.9-11.6-11.9-37.9-11.5-53.9c-11.9-1.9-23-8.4-31.2-18.3c-7.2-8.7-18.6-16.5-24.7-20.4c-6.6-4.2-12-10.1-15.5-17.1l-9.8-19.7
			c-2.7-5.5-3.8-11.6-3.1-17.6c2.3-19.4,11.9-42.9,19.5-59.2c2.6-5.5,7.9-9,13.9-9.3c6-0.4,11.7,2.7,14.8,7.9l8.5,14.1
			c1.6,2.7,4.4,3.2,6.6,2.8c1.2-0.2,3.9-1.2,4.4-4.6l0.1-1c1.9-16.2,12.4-30,27.4-36l19.8-7.9c8.5-6.2,2.6-31.9-3-46.5
			c-21.5-9.1-45.1-14.2-69.9-14.2c-30.3,0-58.8,7.6-83.8,20.9c4.6,8.3,7,17.6,7,27v11.1c0,11.9-4.6,23-13,31.4l-24.6,24.6
			c-2.4,2.4-3.2,5.8-2.1,9c4.3,13-2.2,27.1-14.9,32.1L77,260.4c0,1.4-0.2,2.8-0.2,4.2c0,12.8,1.4,25.3,4,37.4l31.9-12
			c7.4-2.7,15.6-1.7,22.1,2.7s10.3,11.8,10.3,19.7v12.8c0,11.5,6.9,21.9,17.5,26.5l26.3,11.3c8.2,3.5,15.5,8.4,21.8,14.7l5.2,5.2
			c14.9,14.9,20.6,36.8,14.8,57.2l-0.5,1.6c8.5,1.2,17.1,2.1,25.9,2.1c92.8,0,169.4-70.9,178.3-161.5L430.2,285.4z"/>
	</g>
</g>
<g>
	<g>
		<path class="st0" d="M203.7,395l-5.2-5.2c-4.7-4.7-10.3-8.5-16.4-11.1l-26.3-11.3c-16.9-7.2-27.8-23.8-27.8-42.2v-12.8
			c0-2.3-1.1-4.4-3-5.7c-1.9-1.3-4.2-1.6-6.4-0.8l-33.5,12.6c1.5,4.7,3.2,9.3,5.1,13.9c15.2,36.9,43.4,68.2,78.1,88
			c14.1,8,29.2,14.1,44.9,18l0.9-3C218.3,421.1,214.2,405.6,203.7,395z"/>
	</g>
</g>
<g>
	<g>
		<path class="st0" d="M434.3,247.4c-0.1-1.3-0.3-2.5-0.5-3.8c-0.5-4-1.1-7.9-1.8-11.8c-0.3-1.6-0.6-3.3-0.9-4.9
			c-0.9-4.4-2.1-8.7-3.3-12.9c-0.7-2.2-1.4-4.4-2.1-6.6c-0.9-2.5-1.8-5.1-2.8-7.5c-1.3-3.3-2.6-6.5-4.1-9.7
			c-1.2-2.6-2.4-5.2-3.7-7.8c-1.1-2.2-2.3-4.3-3.5-6.5c-1.4-2.5-3-5-4.5-7.4c-1.5-2.4-3.1-4.7-4.7-7c-2-2.9-4.1-5.7-6.3-8.5
			c-1.1-1.4-2.3-2.8-3.5-4.2c-3.1-3.6-6.2-7.2-9.6-10.6c-0.4-0.4-0.8-0.7-1.1-1.1c-3.4-3.3-6.9-6.5-10.5-9.5
			c-0.8-0.7-1.7-1.4-2.6-2.1c-4.1-3.3-8.2-6.5-12.6-9.4c-0.1,0-0.1-0.1-0.1-0.1c-2.9-1.9-5.9-3.6-8.9-5.4
			c4.2,17.2,6.2,40.6-9.9,50.4c-0.4,0.2-0.8,0.5-1.3,0.6l-20.6,8.2c-9.2,3.7-15.6,12.1-16.8,22.1l-0.2,1.3c-1.3,9.6-8.3,17-17.9,19
			c-9.8,2-19.5-2.2-24.6-10.7l-7.7-12.9c-5.9,12.7-15.3,35.2-17.4,52.6c-0.3,2.7,0.2,5.5,1.4,8l9.8,19.7c2.1,4.2,5.3,7.7,9.3,10.3
			c8.5,5.4,20.4,13.9,28.8,24c6.7,8.1,16,12.7,25.6,12.7c2.7,0,5.4,1.1,7.2,3.1c1.9,2,2.8,4.7,2.6,7.4c-1.5,22.7,1.2,42.5,6.5,48.2
			c1.8,1.9,2.6,1,3.7,1.2c0.3,0,10,1.6,18.4-5.5c9.2-7.8,14.1-23.6,14.1-45.8c0-0.6,0.1-1.2,0.2-1.9l14.2-63.9
			c1.2-5.5,5.7-9.7,11.3-10.6c5.6-0.9,11.1,1.6,14,6.5l8.8,14.8c1.3,2.2,3.4,3.7,5.9,4.2c2.5,0.5,5-0.1,7.1-1.6l15-11.3
			C434.9,256.1,434.7,251.7,434.3,247.4z"/>
	</g>
</g>
<g>
	<g>
		<path class="st0" d="M256,0.1c-8.8,0-17.7,0.5-26.5,1.3c-4.7,0.5-8.1,4.7-7.6,9.4c0.5,4.4,4.2,7.7,8.5,7.7c0.3,0,0.6,0,0.9,0
			c8.1-0.8,16.5-1.3,24.7-1.3c4.7,0,8.5-3.8,8.5-8.5C264.5,3.9,260.7,0.1,256,0.1z"/>
	</g>
</g>
<g>
	<g>
		<path class="st0" d="M36.2,141.9c-4.3-2-9.3-0.2-11.4,4c-7.5,15.7-13.4,32.3-17.6,49.2c-1.1,4.6,1.7,9.2,6.3,10.3
			c0.7,0.2,1.4,0.2,2,0.2c3.8,0,7.3-2.6,8.3-6.5c3.9-15.8,9.4-31.3,16.4-45.9C42.3,149,40.5,143.9,36.2,141.9z"/>
	</g>
</g>
<g>
	<g>
		<path class="st0" d="M189,17.6c-1.4-4.5-6.2-7-10.7-5.5c-16.6,5.3-32.7,12.3-47.9,20.9c-4.1,2.3-5.6,7.5-3.2,11.6
			c1.6,2.8,4.5,4.3,7.4,4.3c1.4,0,2.9-0.4,4.2-1.1c14.2-8,29.2-14.6,44.7-19.5C188,26.9,190.5,22.1,189,17.6z"/>
	</g>
</g>
<g>
	<g>
		<path class="st0" d="M20.4,296.2c-2.2-13.2-3.4-26.7-3.4-40.2c0-2.9,0.1-5.7,0.2-8.5c0.2-4.7-3.5-8.7-8.2-8.8
			c-4.7-0.2-8.7,3.5-8.8,8.2C0.1,249.9,0,253,0,256c0,14.4,1.2,28.9,3.6,43c0.7,4.2,4.3,7.1,8.4,7.1c0.5,0,0.9,0,1.4-0.1
			C18.1,305.3,21.2,300.9,20.4,296.2z"/>
	</g>
</g>
<g>
	<g>
		<path class="st0" d="M124.2,455.4c-13.6-9-26.2-19.4-37.7-30.9c-3.3-3.3-8.7-3.4-12.1,0c-3.3,3.3-3.4,8.7,0,12.1
			c12.3,12.4,25.9,23.5,40.4,33.1c1.5,1,3.1,1.4,4.7,1.4c2.8,0,5.5-1.3,7.1-3.8C129.3,463.3,128.2,458,124.2,455.4z"/>
	</g>
</g>
<g>
	<g>
		<path class="st0" d="M321.7,494.9c-1.1-4.6-5.7-7.4-10.3-6.3c-15.8,3.7-32,5.9-48.4,6.4c-4.7,0.1-8.4,4.1-8.3,8.8
			c0.1,4.6,3.9,8.3,8.5,8.3c0.1,0,0.2,0,0.2,0c17.5-0.5,34.9-2.8,51.8-6.8C319.9,504.1,322.8,499.5,321.7,494.9z"/>
	</g>
</g>
<g>
	<g>
		<path class="st0" d="M214.4,491.4c-16-2.8-31.8-7.3-46.9-13.3c-4.4-1.7-9.3,0.4-11.1,4.8c-1.7,4.4,0.4,9.3,4.8,11.1
			c16.2,6.5,33.1,11.3,50.3,14.3c0.5,0.1,1,0.1,1.5,0.1c4.1,0,7.7-2.9,8.4-7.1C222.1,496.6,219,492.2,214.4,491.4z"/>
	</g>
</g>
<g>
	<g>
		<path class="st0" d="M55.8,386.5c-8.9-13.6-16.4-28.2-22.4-43.3c-1.7-4.4-6.7-6.6-11.1-4.8s-6.6,6.7-4.8,11.1
			c6.4,16.2,14.4,31.8,24,46.4c1.6,2.5,4.4,3.9,7.2,3.9c1.6,0,3.2-0.5,4.7-1.4C57.3,395.8,58.4,390.5,55.8,386.5z"/>
	</g>
</g>
<g>
	<g>
		<path class="st0" d="M99.8,63.9c-3.1-3.5-8.5-3.9-12-0.8C74.6,74.6,62.6,87.4,52,101.3c-2.8,3.7-2.1,9.1,1.6,12
			c1.5,1.2,3.4,1.7,5.2,1.7c2.6,0,5.1-1.2,6.8-3.4c9.8-13,21.1-24.9,33.3-35.7C102.5,72.9,102.9,67.5,99.8,63.9z"/>
	</g>
</g>
<g>
	<g>
		<path class="st0" d="M391.3,463.5c-2.4-4-7.7-5.3-11.7-2.9c-7,4.3-14.3,8.2-21.8,11.7c-4.3,2-6.1,7.1-4.1,11.4
			c1.5,3.1,4.5,4.9,7.7,4.9c1.2,0,2.5-0.3,3.6-0.8c8-3.7,15.8-8,23.3-12.5C392.5,472.7,393.7,467.5,391.3,463.5z"/>
	</g>
</g>
<g>
	<g>
		<path class="st0" d="M510.2,378.8c-2.9-3.7-8.3-4.4-12-1.5l-28.8,22.4l-38.3-23c-4-2.4-9.3-1.1-11.7,2.9s-1.1,9.3,2.9,11.7
			L455,411L425,434.2l-21.3-7.1c-4.5-1.5-9.3,0.9-10.8,5.4c-1.5,4.5,0.9,9.3,5.4,10.8l19.8,6.6v19.4c0,4.7,3.8,8.5,8.5,8.5
			s8.5-3.8,8.5-8.5v-21.4l30.7-23.9l12.6,31.4c1.3,3.3,4.5,5.4,7.9,5.4c1.1,0,2.1-0.2,3.2-0.6c4.4-1.8,6.5-6.7,4.8-11.1l-14.4-36
			l28.8-22.4C512.4,387.9,513.1,382.5,510.2,378.8z"/>
	</g>
</g>
</svg>
