<?xml version="1.0" encoding="utf-8"?>
<!-- Generator: Adobe Illustrator 21.1.0, SVG Export Plug-In . SVG Version: 6.00 Build 0)  -->
<svg version="1.1" xmlns="http://www.w3.org/2000/svg" xmlns:xlink="http://www.w3.org/1999/xlink" x="0px" y="0px"
	 viewBox="0 0 575 132" style="enable-background:new 0 0 575 132;" xml:space="preserve">
<style type="text/css">
	.st0{fill:#052D44;}
	.st1{fill:#F9F9F9;}
	.st2{fill:url(#SVGID_1_);}
	.st3{fill:url(#SVGID_2_);}
	.st4{fill:url(#SVGID_3_);}
	.st5{fill:url(#SVGID_4_);}
	.st6{fill:url(#SVGID_5_);}
	.st7{fill:url(#SVGID_6_);}
	.st8{fill:url(#SVGID_7_);}
	.st9{fill:url(#SVGID_8_);}
	.st10{fill:url(#SVGID_9_);}
	.st11{fill:url(#SVGID_10_);}
	.st12{fill:url(#SVGID_11_);}
	.st13{fill:url(#SVGID_12_);}
	.st14{fill:url(#SVGID_13_);}
	.st15{fill:url(#SVGID_14_);}
	.st16{fill:url(#SVGID_15_);}
	.st17{fill:#FCFAFA;}
	.st18{fill:url(#SVGID_16_);}
	.st19{fill:url(#SVGID_17_);}
	.st20{fill:url(#SVGID_18_);}
	.st21{fill:url(#SVGID_19_);}
	.st22{fill:url(#SVGID_20_);}
	.st23{fill:url(#SVGID_21_);}
	.st24{fill:url(#SVGID_22_);}
	.st25{fill:url(#SVGID_23_);}
	.st26{fill:url(#SVGID_24_);}
	.st27{fill:url(#SVGID_25_);}
	.st28{fill:url(#SVGID_26_);}
	.st29{fill:url(#SVGID_27_);}
	.st30{fill:url(#SVGID_28_);}
	.st31{fill:url(#SVGID_29_);}
	.st32{fill:url(#SVGID_30_);}
</style>
<g id="bk">
</g>
<g id="Layer_3">
</g>
<g id="Layer_2">
	<g>
		<path class="st1" d="M142.4,101.2c-1-0.6-1.9-1.3-2.5-2.3c-0.6-1-0.9-2.1-0.9-3.4c0-1.3,0.3-2.4,0.9-3.4c0.6-1,1.4-1.8,2.5-2.3
			c1-0.6,2.2-0.8,3.5-0.8c1.1,0,2.1,0.2,3,0.6c0.9,0.4,1.6,0.9,2.2,1.7l-1.9,1.7c-0.9-1-1.9-1.5-3.2-1.5c-0.8,0-1.5,0.2-2.1,0.5
			c-0.6,0.3-1.1,0.8-1.4,1.4c-0.3,0.6-0.5,1.3-0.5,2.1c0,0.8,0.2,1.5,0.5,2.1c0.3,0.6,0.8,1.1,1.4,1.4c0.6,0.3,1.3,0.5,2.1,0.5
			c1.3,0,2.3-0.5,3.2-1.5l1.9,1.7c-0.6,0.7-1.4,1.3-2.2,1.7c-0.9,0.4-1.9,0.6-3,0.6C144.6,102,143.4,101.7,142.4,101.2z"/>
		<path class="st1" d="M153.1,89.1h2.9v12.7h-2.9V89.1z"/>
		<path class="st1" d="M161.6,91.5h-4.1v-2.4h11v2.4h-4.1v10.3h-2.9V91.5z"/>
		<path class="st1" d="M170.2,89.1h2.9v12.7h-2.9V89.1z"/>
		<path class="st1" d="M186.4,99.4v2.4h-11.1v-1.9l7-8.4h-6.8v-2.4h10.7V91l-6.9,8.4H186.4z"/>
		<path class="st1" d="M198.1,99.4v2.4h-9.8V89.1h9.6v2.4h-6.7v2.8h5.9v2.3h-5.9v2.9H198.1z"/>
		<path class="st1" d="M212,89.1v12.7h-2.4l-6.3-7.7v7.7h-2.9V89.1h2.4l6.3,7.7v-7.7H212z"/>
		<path class="st1" d="M216.3,101.6c-0.9-0.3-1.7-0.6-2.3-1.1l1-2.2c0.5,0.4,1.2,0.7,1.9,1c0.7,0.2,1.5,0.4,2.2,0.4
			c0.8,0,1.4-0.1,1.8-0.4c0.4-0.2,0.6-0.6,0.6-1c0-0.3-0.1-0.6-0.4-0.8c-0.2-0.2-0.5-0.4-0.9-0.5c-0.4-0.1-0.9-0.3-1.5-0.4
			c-1-0.2-1.8-0.5-2.4-0.7c-0.6-0.2-1.1-0.6-1.6-1.1c-0.4-0.5-0.7-1.2-0.7-2c0-0.7,0.2-1.4,0.6-2c0.4-0.6,1-1.1,1.8-1.4
			s1.8-0.5,2.9-0.5c0.8,0,1.6,0.1,2.4,0.3c0.8,0.2,1.4,0.5,2,0.8l-0.9,2.2c-1.2-0.7-2.3-1-3.5-1c-0.8,0-1.4,0.1-1.8,0.4
			c-0.4,0.3-0.6,0.6-0.6,1s0.2,0.8,0.7,1c0.5,0.2,1.1,0.4,2.1,0.6c1,0.2,1.8,0.5,2.4,0.7c0.6,0.2,1.1,0.6,1.6,1.1
			c0.4,0.5,0.7,1.2,0.7,2c0,0.7-0.2,1.4-0.6,2c-0.4,0.6-1,1.1-1.8,1.4c-0.8,0.3-1.8,0.5-3,0.5C218.2,102,217.2,101.9,216.3,101.6z"
			/>
		<path class="st1" d="M238.2,89.1v12.7h-2.9v-5.2h-5.8v5.2h-2.9V89.1h2.9v5h5.8v-5H238.2z"/>
		<path class="st1" d="M241.2,89.1h2.9v12.7h-2.9V89.1z"/>
		<path class="st1" d="M255.5,89.7c0.8,0.4,1.5,0.9,1.9,1.6c0.4,0.7,0.7,1.5,0.7,2.4c0,0.9-0.2,1.7-0.7,2.4
			c-0.4,0.7-1.1,1.2-1.9,1.6c-0.8,0.4-1.8,0.6-2.9,0.6h-2.6v3.5h-2.9V89.1h5.5C253.7,89.1,254.7,89.3,255.5,89.7z M254.5,95.3
			c0.5-0.4,0.7-0.9,0.7-1.6c0-0.7-0.2-1.3-0.7-1.6c-0.5-0.4-1.1-0.6-2-0.6h-2.4v4.4h2.4C253.3,95.9,254,95.7,254.5,95.3z"/>
		<path class="st1" d="M273.9,99.1H268l-1.1,2.7h-3l5.6-12.7h2.9l5.7,12.7H275L273.9,99.1z M272.9,96.8l-2-4.9l-2,4.9H272.9z"/>
		<path class="st1" d="M291,89.1v12.7h-2.4l-6.3-7.7v7.7h-2.9V89.1h2.4l6.3,7.7v-7.7H291z"/>
		<path class="st1" d="M294,89.1h5.8c1.4,0,2.6,0.3,3.6,0.8c1.1,0.5,1.9,1.3,2.5,2.2c0.6,1,0.9,2.1,0.9,3.3c0,1.3-0.3,2.4-0.9,3.3
			c-0.6,1-1.4,1.7-2.5,2.2c-1.1,0.5-2.3,0.8-3.6,0.8H294V89.1z M299.6,99.4c1.3,0,2.3-0.4,3-1.1c0.8-0.7,1.1-1.7,1.1-2.9
			c0-1.2-0.4-2.2-1.1-2.9c-0.8-0.7-1.8-1.1-3-1.1h-2.7v7.9H299.6z"/>
		<path class="st1" d="M314.1,89.1h2.9v12.7h-2.9V89.1z"/>
		<path class="st1" d="M331.6,89.1v12.7h-2.4l-6.3-7.7v7.7H320V89.1h2.4l6.3,7.7v-7.7H331.6z"/>
		<path class="st1" d="M346.7,89.1l-5.5,12.7h-2.9l-5.5-12.7h3.2l3.9,9l3.9-9H346.7z"/>
		<path class="st1" d="M357.6,99.4v2.4h-9.8V89.1h9.6v2.4h-6.7v2.8h5.9v2.3h-5.9v2.9H357.6z"/>
		<path class="st1" d="M361.2,101.6c-0.9-0.3-1.7-0.6-2.3-1.1l1-2.2c0.5,0.4,1.2,0.7,1.9,1c0.7,0.2,1.5,0.4,2.2,0.4
			c0.8,0,1.4-0.1,1.8-0.4c0.4-0.2,0.6-0.6,0.6-1c0-0.3-0.1-0.6-0.4-0.8c-0.2-0.2-0.5-0.4-0.9-0.5c-0.4-0.1-0.9-0.3-1.5-0.4
			c-1-0.2-1.8-0.5-2.4-0.7c-0.6-0.2-1.1-0.6-1.6-1.1c-0.4-0.5-0.7-1.2-0.7-2c0-0.7,0.2-1.4,0.6-2c0.4-0.6,1-1.1,1.8-1.4
			c0.8-0.3,1.8-0.5,2.9-0.5c0.8,0,1.6,0.1,2.4,0.3c0.8,0.2,1.4,0.5,2,0.8l-0.9,2.2c-1.2-0.7-2.3-1-3.5-1c-0.8,0-1.4,0.1-1.8,0.4
			c-0.4,0.3-0.6,0.6-0.6,1s0.2,0.8,0.7,1c0.5,0.2,1.1,0.4,2.1,0.6c1,0.2,1.8,0.5,2.4,0.7c0.6,0.2,1.1,0.6,1.6,1.1
			c0.4,0.5,0.7,1.2,0.7,2c0,0.7-0.2,1.4-0.6,2c-0.4,0.6-1,1.1-1.8,1.4c-0.8,0.3-1.8,0.5-3,0.5C363.1,102,362.1,101.9,361.2,101.6z"
			/>
		<path class="st1" d="M373.9,91.5h-4.1v-2.4h11v2.4h-4.1v10.3h-2.9V91.5z"/>
		<path class="st1" d="M394,101.8l0-7.6l-3.7,6.3h-1.3l-3.7-6.1v7.4h-2.8V89.1h2.4l4.7,7.9l4.7-7.9h2.4l0,12.7H394z"/>
		<path class="st1" d="M409.6,99.4v2.4h-9.8V89.1h9.6v2.4h-6.7v2.8h5.9v2.3h-5.9v2.9H409.6z"/>
		<path class="st1" d="M423.5,89.1v12.7h-2.4l-6.3-7.7v7.7h-2.9V89.1h2.4l6.3,7.7v-7.7H423.5z"/>
		<path class="st1" d="M429.2,91.5h-4.1v-2.4h11v2.4h-4.1v10.3h-2.9V91.5z"/>
		<path class="st1" d="M444.1,101.6c-0.9-0.3-1.7-0.6-2.3-1.1l1-2.2c0.5,0.4,1.2,0.7,1.9,1c0.7,0.2,1.5,0.4,2.2,0.4
			c0.8,0,1.4-0.1,1.8-0.4c0.4-0.2,0.6-0.6,0.6-1c0-0.3-0.1-0.6-0.4-0.8c-0.2-0.2-0.5-0.4-0.9-0.5c-0.4-0.1-0.9-0.3-1.5-0.4
			c-1-0.2-1.8-0.5-2.4-0.7c-0.6-0.2-1.1-0.6-1.6-1.1c-0.4-0.5-0.7-1.2-0.7-2c0-0.7,0.2-1.4,0.6-2c0.4-0.6,1-1.1,1.8-1.4
			c0.8-0.3,1.8-0.5,2.9-0.5c0.8,0,1.6,0.1,2.4,0.3c0.8,0.2,1.4,0.5,2,0.8l-0.9,2.2c-1.2-0.7-2.3-1-3.5-1c-0.8,0-1.4,0.1-1.8,0.4
			c-0.4,0.3-0.6,0.6-0.6,1s0.2,0.8,0.7,1c0.5,0.2,1.1,0.4,2.1,0.6c1,0.2,1.8,0.5,2.4,0.7c0.6,0.2,1.1,0.6,1.6,1.1
			c0.4,0.5,0.7,1.2,0.7,2c0,0.7-0.2,1.4-0.6,2c-0.4,0.6-1,1.1-1.8,1.4c-0.8,0.3-1.8,0.5-3,0.5C446,102,445,101.9,444.1,101.6z"/>
		<path class="st1" d="M464.2,99.4v2.4h-9.8V89.1h9.6v2.4h-6.7v2.8h5.9v2.3h-5.9v2.9H464.2z"/>
		<path class="st1" d="M474.6,101.8l-2.4-3.5H472h-2.6v3.5h-2.9V89.1h5.5c1.1,0,2.1,0.2,2.9,0.6c0.8,0.4,1.5,0.9,1.9,1.6
			c0.4,0.7,0.7,1.5,0.7,2.4s-0.2,1.8-0.7,2.4c-0.5,0.7-1.1,1.2-1.9,1.6l2.8,4.1H474.6z M473.9,92.1c-0.5-0.4-1.1-0.6-2-0.6h-2.4v4.4
			h2.4c0.9,0,1.5-0.2,2-0.6c0.5-0.4,0.7-0.9,0.7-1.6C474.6,93,474.3,92.5,473.9,92.1z"/>
		<path class="st1" d="M492,89.1l-5.5,12.7h-2.9l-5.5-12.7h3.2l3.9,9l3.9-9H492z"/>
		<path class="st1" d="M493.1,89.1h2.9v12.7h-2.9V89.1z"/>
		<path class="st1" d="M501.6,101.2c-1-0.6-1.9-1.3-2.5-2.3c-0.6-1-0.9-2.1-0.9-3.4c0-1.3,0.3-2.4,0.9-3.4c0.6-1,1.4-1.8,2.5-2.3
			c1-0.6,2.2-0.8,3.5-0.8c1.1,0,2.1,0.2,3,0.6c0.9,0.4,1.6,0.9,2.2,1.7l-1.9,1.7c-0.9-1-1.9-1.5-3.2-1.5c-0.8,0-1.5,0.2-2.1,0.5
			c-0.6,0.3-1.1,0.8-1.4,1.4c-0.3,0.6-0.5,1.3-0.5,2.1c0,0.8,0.2,1.5,0.5,2.1c0.3,0.6,0.8,1.1,1.4,1.4c0.6,0.3,1.3,0.5,2.1,0.5
			c1.3,0,2.3-0.5,3.2-1.5l1.9,1.7c-0.6,0.7-1.4,1.3-2.2,1.7c-0.9,0.4-1.9,0.6-3,0.6C503.8,102,502.6,101.7,501.6,101.2z"/>
		<path class="st1" d="M522.1,99.4v2.4h-9.8V89.1h9.6v2.4h-6.7v2.8h5.9v2.3h-5.9v2.9H522.1z"/>
	</g>
	<g>
		<g>
			<g>
				<g>
					<linearGradient id="SVGID_1_" gradientUnits="userSpaceOnUse" x1="35.0886" y1="58.4279" x2="115.6758" y2="58.4279">
						<stop  offset="0" style="stop-color:#15ADFF"/>
						<stop  offset="1" style="stop-color:#008BE9"/>
					</linearGradient>
					<path class="st2" d="M104.7,65.2c0.9,3.6-9,2.4-11.4,5.8c-2.4,3.3-8.3,1.1-9.7,0.5c-1.4-0.6-6.6,1.5-6.1-2.1
						c0.5-3.6,3.6-3.9,7.1-5.3c3.4-1.5,8.3-6.5,5.9-7.1c-11.4-3.1-15.3-13.8-15.3-13.8c-0.7-0.1-0.5-7.6-3.5-7.8
						c-3-0.2-4.6,0.9-8.9,0c-4.3-0.9-3.4-3.6-4.1-9.6c-0.7-6,1.8-4.1,3.2-6c0.1-0.2,0.3-0.3,0.4-0.5c-15.8,5.4-27.3,20.5-27.3,38.1
						c0,0,0,0.1,0,0.1c2.9,0.2,8.3,0.8,8.6,2.8c0.3,2.8,0,6.3,2.4,7.3c2.4,1,3.1-4.2,5.2-2.8c2.1,1.4,7.7,2.7,7.7,5.2
						c0,2.5-1,6.3,0,7s5.2,5.6,5.2,6.3c0,0.7,1.5,4.2,1,5.6c-0.4,1.1-2.2,4.6-4,6.2c4.4,1.6,9.1,2.6,14.1,2.6
						c22.2,0,40.3-18.1,40.3-40.3c0-6.6-1.6-12.8-4.4-18.3c0.3,4.1,0.1,7.8,1,9.1C116.2,53.5,102.7,57.1,104.7,65.2z"/>
				</g>
			</g>
		</g>
		<g>
			<g>
				<g>
					<linearGradient id="SVGID_2_" gradientUnits="userSpaceOnUse" x1="35.0886" y1="58.4279" x2="115.6758" y2="58.4279">
						<stop  offset="0" style="stop-color:#15ADFF"/>
						<stop  offset="1" style="stop-color:#008BE9"/>
					</linearGradient>
					<path class="st3" d="M104.7,65.2c0.9,3.6-9,2.4-11.4,5.8c-2.4,3.3-8.3,1.1-9.7,0.5c-1.4-0.6-6.6,1.5-6.1-2.1
						c0.5-3.6,3.6-3.9,7.1-5.3c3.4-1.5,8.3-6.5,5.9-7.1c-11.4-3.1-15.3-13.8-15.3-13.8c-0.7-0.1-0.5-7.6-3.5-7.8
						c-3-0.2-4.6,0.9-8.9,0c-4.3-0.9-3.4-3.6-4.1-9.6c-0.7-6,1.8-4.1,3.2-6c0.1-0.2,0.3-0.3,0.4-0.5c-15.8,5.4-27.3,20.5-27.3,38.1
						c0,0,0,0.1,0,0.1c2.9,0.2,8.3,0.8,8.6,2.8c0.3,2.8,0,6.3,2.4,7.3c2.4,1,3.1-4.2,5.2-2.8c2.1,1.4,7.7,2.7,7.7,5.2
						c0,2.5-1,6.3,0,7s5.2,5.6,5.2,6.3c0,0.7,1.5,4.2,1,5.6c-0.4,1.1-2.2,4.6-4,6.2c4.4,1.6,9.1,2.6,14.1,2.6
						c22.2,0,40.3-18.1,40.3-40.3c0-6.6-1.6-12.8-4.4-18.3c0.3,4.1,0.1,7.8,1,9.1C116.2,53.5,102.7,57.1,104.7,65.2z"/>
				</g>
			</g>
		</g>
	</g>
	<linearGradient id="SVGID_3_" gradientUnits="userSpaceOnUse" x1="117.9111" y1="61.8569" x2="156.7754" y2="61.8569">
		<stop  offset="0" style="stop-color:#15ADFF"/>
		<stop  offset="1" style="stop-color:#008BE9"/>
	</linearGradient>
	<path class="st4" d="M147.5,61.2h8.5v16.3c-2.2,1.6-4.7,2.9-7.6,3.8c-2.9,0.9-5.8,1.3-8.7,1.3c-4.2,0-7.9-0.9-11.2-2.7
		c-3.3-1.8-5.9-4.2-7.8-7.4s-2.8-6.7-2.8-10.7c0-4,0.9-7.5,2.8-10.7s4.5-5.6,7.9-7.4c3.4-1.8,7.1-2.7,11.3-2.7
		c3.5,0,6.7,0.6,9.6,1.8c2.9,1.2,5.3,2.9,7.2,5.2l-6,5.5c-2.9-3-6.3-4.5-10.4-4.5c-2.6,0-4.8,0.5-6.8,1.6c-2,1.1-3.5,2.6-4.6,4.5
		c-1.1,1.9-1.7,4.2-1.7,6.7c0,2.5,0.6,4.7,1.7,6.6c1.1,1.9,2.6,3.5,4.6,4.6c2,1.1,4.2,1.6,6.7,1.6c2.7,0,5.1-0.6,7.2-1.7V61.2z"/>
	<linearGradient id="SVGID_4_" gradientUnits="userSpaceOnUse" x1="163.998" y1="60.6533" x2="172.9404" y2="60.6533">
		<stop  offset="0" style="stop-color:#15ADFF"/>
		<stop  offset="1" style="stop-color:#008BE9"/>
	</linearGradient>
	<path class="st5" d="M164,39.4h8.9v42.5H164V39.4z"/>
	<linearGradient id="SVGID_5_" gradientUnits="userSpaceOnUse" x1="178.959" y1="66.5005" x2="212.8369" y2="66.5005">
		<stop  offset="0" style="stop-color:#15ADFF"/>
		<stop  offset="1" style="stop-color:#008BE9"/>
	</linearGradient>
	<path class="st6" d="M187.2,80.3c-2.6-1.4-4.6-3.2-6-5.6c-1.5-2.4-2.2-5.1-2.2-8.2s0.7-5.8,2.2-8.2c1.5-2.4,3.5-4.3,6-5.6
		c2.6-1.4,5.5-2,8.7-2c3.2,0,6.2,0.7,8.7,2c2.6,1.4,4.6,3.2,6,5.6s2.2,5.1,2.2,8.2s-0.7,5.8-2.2,8.2s-3.5,4.3-6,5.6
		c-2.6,1.4-5.5,2-8.7,2C192.7,82.4,189.8,81.7,187.2,80.3z M201.6,72.7c1.5-1.5,2.2-3.6,2.2-6.2c0-2.6-0.7-4.7-2.2-6.2
		c-1.5-1.5-3.4-2.3-5.6-2.3s-4.2,0.8-5.7,2.3s-2.2,3.6-2.2,6.2c0,2.6,0.7,4.7,2.2,6.2s3.4,2.3,5.7,2.3S200.1,74.3,201.6,72.7z"/>
	<linearGradient id="SVGID_6_" gradientUnits="userSpaceOnUse" x1="218.7979" y1="60.8828" x2="252.3887" y2="60.8828">
		<stop  offset="0" style="stop-color:#15ADFF"/>
		<stop  offset="1" style="stop-color:#008BE9"/>
	</linearGradient>
	<path class="st7" d="M244.9,52.6c2.4,1.3,4.2,3.2,5.5,5.6c1.3,2.4,2,5.2,2,8.3c0,3.2-0.7,6-2,8.3c-1.3,2.4-3.2,4.2-5.5,5.6
		c-2.3,1.3-5,2-7.8,2c-4.2,0-7.5-1.3-9.7-4v3.6h-8.5V39.4h8.9v15c2.3-2.5,5.3-3.7,9.3-3.7C239.9,50.6,242.5,51.3,244.9,52.6z
		 M241.1,72.7c1.5-1.5,2.2-3.6,2.2-6.2c0-2.6-0.7-4.7-2.2-6.2c-1.5-1.5-3.4-2.3-5.6-2.3s-4.2,0.8-5.6,2.3c-1.5,1.5-2.2,3.6-2.2,6.2
		c0,2.6,0.7,4.7,2.2,6.2c1.5,1.5,3.4,2.3,5.6,2.3S239.7,74.3,241.1,72.7z"/>
	<linearGradient id="SVGID_7_" gradientUnits="userSpaceOnUse" x1="255.8281" y1="66.5005" x2="285.1191" y2="66.5005">
		<stop  offset="0" style="stop-color:#15ADFF"/>
		<stop  offset="1" style="stop-color:#008BE9"/>
	</linearGradient>
	<path class="st8" d="M281.3,54c2.6,2.3,3.8,5.7,3.8,10.3v17.6h-8.4v-3.8c-1.7,2.9-4.8,4.3-9.4,4.3c-2.4,0-4.4-0.4-6.2-1.2
		c-1.7-0.8-3.1-1.9-4-3.3c-0.9-1.4-1.4-3-1.4-4.8c0-2.9,1.1-5.1,3.2-6.8c2.2-1.6,5.5-2.5,10-2.5h7.1c0-1.9-0.6-3.4-1.8-4.5
		c-1.2-1.1-3-1.6-5.3-1.6c-1.6,0-3.3,0.3-4.8,0.8c-1.6,0.5-2.9,1.2-4,2.1l-3.2-6.2c1.7-1.2,3.7-2.1,6-2.8c2.4-0.6,4.8-1,7.3-1
		C275,50.6,278.7,51.8,281.3,54z M273.7,75.3c1.2-0.7,2-1.7,2.5-3.1V69H270c-3.7,0-5.5,1.2-5.5,3.6c0,1.1,0.4,2.1,1.3,2.7
		c0.9,0.7,2.1,1,3.7,1C271.1,76.4,272.5,76,273.7,75.3z"/>
	<linearGradient id="SVGID_8_" gradientUnits="userSpaceOnUse" x1="293.2012" y1="60.6533" x2="302.1436" y2="60.6533">
		<stop  offset="0" style="stop-color:#15ADFF"/>
		<stop  offset="1" style="stop-color:#008BE9"/>
	</linearGradient>
	<path class="st9" d="M293.2,39.4h8.9v42.5h-8.9V39.4z"/>
	<linearGradient id="SVGID_9_" gradientUnits="userSpaceOnUse" x1="311.0859" y1="61.8572" x2="347.8867" y2="61.8572">
		<stop  offset="0" style="stop-color:#15ADFF"/>
		<stop  offset="1" style="stop-color:#008BE9"/>
	</linearGradient>
	<path class="st10" d="M347.9,41.8v40.1h-9.3V65.5h-18.2v16.5h-9.3V41.8h9.3v15.8h18.2V41.8H347.9z"/>
	<linearGradient id="SVGID_10_" gradientUnits="userSpaceOnUse" x1="354.4785" y1="66.5005" x2="388.3564" y2="66.5005">
		<stop  offset="0" style="stop-color:#15ADFF"/>
		<stop  offset="1" style="stop-color:#008BE9"/>
	</linearGradient>
	<path class="st11" d="M362.7,80.3c-2.6-1.4-4.6-3.2-6-5.6c-1.5-2.4-2.2-5.1-2.2-8.2s0.7-5.8,2.2-8.2c1.5-2.4,3.5-4.3,6-5.6
		c2.6-1.4,5.5-2,8.7-2c3.2,0,6.2,0.7,8.7,2c2.6,1.4,4.6,3.2,6,5.6s2.2,5.1,2.2,8.2s-0.7,5.8-2.2,8.2s-3.5,4.3-6,5.6
		c-2.6,1.4-5.5,2-8.7,2C368.2,82.4,365.3,81.7,362.7,80.3z M377.1,72.7c1.5-1.5,2.2-3.6,2.2-6.2c0-2.6-0.7-4.7-2.2-6.2
		c-1.5-1.5-3.4-2.3-5.6-2.3s-4.2,0.8-5.7,2.3s-2.2,3.6-2.2,6.2c0,2.6,0.7,4.7,2.2,6.2s3.4,2.3,5.7,2.3S375.6,74.3,377.1,72.7z"/>
	<linearGradient id="SVGID_11_" gradientUnits="userSpaceOnUse" x1="394.3174" y1="66.271" x2="413.4629" y2="66.271">
		<stop  offset="0" style="stop-color:#15ADFF"/>
		<stop  offset="1" style="stop-color:#008BE9"/>
	</linearGradient>
	<path class="st12" d="M407.2,51.8c1.8-0.8,3.9-1.1,6.3-1.1v8.3c-1-0.1-1.7-0.1-2-0.1c-2.6,0-4.6,0.7-6,2.1
		c-1.5,1.4-2.2,3.6-2.2,6.4v14.6h-8.9V51.1h8.5v4.1C403.9,53.7,405.4,52.5,407.2,51.8z"/>
	<linearGradient id="SVGID_12_" gradientUnits="userSpaceOnUse" x1="417.7051" y1="59.3635" x2="428.8252" y2="59.3635">
		<stop  offset="0" style="stop-color:#15ADFF"/>
		<stop  offset="1" style="stop-color:#008BE9"/>
	</linearGradient>
	<path class="st13" d="M419.3,45.3c-1-1-1.5-2.1-1.5-3.6c0-1.4,0.5-2.6,1.5-3.6c1-1,2.4-1.4,4-1.4c1.6,0,3,0.5,4,1.4
		c1,0.9,1.5,2.1,1.5,3.4c0,1.5-0.5,2.7-1.5,3.7c-1,1-2.4,1.5-4,1.5C421.6,46.8,420.3,46.3,419.3,45.3z M418.8,51.1h8.9v30.8h-8.9
		V51.1z"/>
	<linearGradient id="SVGID_13_" gradientUnits="userSpaceOnUse" x1="433.9268" y1="66.5002" x2="461.4414" y2="66.5002">
		<stop  offset="0" style="stop-color:#15ADFF"/>
		<stop  offset="1" style="stop-color:#008BE9"/>
	</linearGradient>
	<path class="st14" d="M461.4,75v6.9h-27.5v-5.4L449.6,58h-15.3v-6.9h26.6v5.4L445.2,75H461.4z"/>
	<linearGradient id="SVGID_14_" gradientUnits="userSpaceOnUse" x1="464.4795" y1="66.5005" x2="498.3574" y2="66.5005">
		<stop  offset="0" style="stop-color:#15ADFF"/>
		<stop  offset="1" style="stop-color:#008BE9"/>
	</linearGradient>
	<path class="st15" d="M472.7,80.3c-2.6-1.4-4.6-3.2-6-5.6c-1.5-2.4-2.2-5.1-2.2-8.2s0.7-5.8,2.2-8.2c1.5-2.4,3.5-4.3,6-5.6
		c2.6-1.4,5.5-2,8.7-2c3.2,0,6.2,0.7,8.7,2c2.6,1.4,4.6,3.2,6,5.6s2.2,5.1,2.2,8.2s-0.7,5.8-2.2,8.2s-3.5,4.3-6,5.6
		c-2.6,1.4-5.5,2-8.7,2C478.2,82.4,475.3,81.7,472.7,80.3z M487.1,72.7c1.5-1.5,2.2-3.6,2.2-6.2c0-2.6-0.7-4.7-2.2-6.2
		c-1.5-1.5-3.4-2.3-5.6-2.3s-4.2,0.8-5.7,2.3s-2.2,3.6-2.2,6.2c0,2.6,0.7,4.7,2.2,6.2s3.4,2.3,5.7,2.3S485.6,74.3,487.1,72.7z"/>
	<linearGradient id="SVGID_15_" gradientUnits="userSpaceOnUse" x1="504.3184" y1="66.271" x2="535.8457" y2="66.271">
		<stop  offset="0" style="stop-color:#15ADFF"/>
		<stop  offset="1" style="stop-color:#008BE9"/>
	</linearGradient>
	<path class="st16" d="M532.3,54.1c2.4,2.3,3.5,5.7,3.5,10.2v17.7h-8.9V65.6c0-2.4-0.5-4.3-1.6-5.5c-1.1-1.2-2.6-1.8-4.6-1.8
		c-2.3,0-4.1,0.7-5.4,2.1c-1.3,1.4-2,3.5-2,6.2v15.2h-8.9V51.1h8.5v3.6c1.2-1.3,2.7-2.3,4.4-3c1.8-0.7,3.7-1.1,5.8-1.1
		C526.9,50.6,530,51.8,532.3,54.1z"/>
</g>
</svg>
